<svg width="161.086" height="160.391" viewBox="0 0 42.621 42.437" xmlns="http://www.w3.org/2000/svg"><defs><filter height="2.302" width="2.289" y="-.651" x="-.644" style="color-interpolation-filters:sRGB" id="a"><feGaussianBlur stdDeviation="5" in="SourceAlpha" result="result1"/><feComposite operator="arithmetic" k2="3.2" k1="-1" k4="-2" result="result3" in2="result1"/><feColorMatrix values="1 0 0 0 0 0 1 0 0 0 0 0 1 0 0 0 0 0 10 0" result="result2"/><feComposite result="fbSourceGraphic" in="SourceGraphic" operator="out" in2="result2"/><feBlend mode="multiply" in="result1" in2="fbSourceGraphic" result="result91"/><feBlend mode="screen" in="fbSourceGraphic" in2="result91"/></filter></defs><path d="M21.31 39.637v-6.62a12.044 12.044 0 0 0 4.622-.849 11.95 11.95 0 0 0 3.932-2.55 11.807 11.807 0 0 0 2.633-3.856 11.714 11.714 0 0 0 0-9.125 11.807 11.807 0 0 0-2.633-3.856 11.957 11.957 0 0 0-3.932-2.55 12.044 12.044 0 0 0-4.622-.85V2.764c4.939 0 9.675 1.942 13.167 5.4A18.345 18.345 0 0 1 39.931 21.2c0 4.89-1.962 9.579-5.454 13.036a18.715 18.715 0 0 1-13.167 5.4" style="fill:purple;stroke-width:.0352778"/><g style="mix-blend-mode:normal"><g style="fill:teal"><path d="M403.77 1095.597c-9.155 0-16.657 7.502-16.657 16.656v37.844c0 4.341 1.718 8.307 4.469 11.28-2.76 2.977-4.469 6.932-4.469 11.282v37.813c0 2.371.5 4.636 1.406 6.687H302.55c-9.153 0-16.656 7.534-16.656 16.688v37.812c0 4.35 1.709 8.329 4.469 11.313-2.76 2.983-4.469 6.931-4.469 11.28v37.813c0 9.154 7.503 16.688 16.656 16.688h85.657a16.372 16.372 0 0 0-1.094 5.875v37.844c0 9.154 7.502 16.656 16.656 16.656h28.938c9.154 0 16.687-7.502 16.687-16.656v-37.844c0-4.339-1.714-8.277-4.469-11.25 2.765-2.983 4.47-6.966 4.47-11.313v-37.812c0-9.154-7.534-16.688-16.688-16.688h-28.938c-9.154 0-16.656 7.534-16.656 16.688v37.812c0 2.372.5 4.636 1.406 6.688h-41.781a16.527 16.527 0 0 0 1.406-6.688v-37.812c0-4.35-1.708-8.298-4.469-11.281 2.76-2.984 4.47-6.963 4.47-11.313v-37.812c0-2.378-.528-4.632-1.438-6.688h86c9.154 0 16.687-7.534 16.687-16.687v-37.813c0-4.347-1.704-8.306-4.469-11.281 2.755-2.974 4.47-6.943 4.47-11.281v-37.844c0-9.154-7.534-16.656-16.688-16.656zm0 10h28.937c3.787 0 6.687 2.869 6.687 6.656v37.844c0 2.84-1.618 5.171-4.031 6.156h-34.219c-2.404-.985-4.031-3.316-4.031-6.156v-37.844c0-3.787 2.87-6.656 6.656-6.656zm-2.657 60.937h34.281c2.398.991 4 3.296 4 6.125v37.813c0 3.786-2.9 6.687-6.687 6.687h-28.938c-3.787 0-6.656-2.9-6.656-6.687v-37.813c0-2.83 1.61-5.134 4-6.125zm-98.563 60.625h28.938c3.787 0 6.656 2.9 6.656 6.688v37.812c0 2.815-1.6 5.148-3.969 6.156h-34.312c-2.37-1.008-3.969-3.34-3.969-6.156v-37.812c0-3.787 2.87-6.688 6.656-6.688zm101.22 60.406h28.937c3.787 0 6.687 2.9 6.687 6.688v37.812c0 2.814-1.592 5.148-3.969 6.157h-34.343c-2.37-1.008-3.969-3.342-3.969-6.157v-37.812c0-3.787 2.87-6.688 6.656-6.688zm-103.876.563h34.25c2.384 1.002 4 3.3 4 6.125v37.812c0 3.787-2.87 6.688-6.656 6.688H302.55c-3.786 0-6.656-2.9-6.656-6.688v-37.812c0-2.825 1.617-5.123 4-6.125zm135.5 60.406c2.391.994 4 3.27 4 6.094v37.844c0 3.787-2.9 6.656-6.687 6.656h-28.938c-3.787 0-6.656-2.87-6.656-6.656v-37.844c0-2.604 1.36-4.773 3.437-5.875 4.78 0 23.59-.219 34.844-.219z" style="color:#000;font-style:normal;font-variant:normal;font-weight:400;font-stretch:normal;font-size:medium;line-height:normal;font-family:'Bitstream Vera Sans';-inkscape-font-specification:'Bitstream Vera Sans';text-indent:0;text-align:start;text-decoration:none;text-decoration-line:none;letter-spacing:normal;word-spacing:normal;text-transform:none;writing-mode:lr-tb;direction:ltr;text-anchor:start;display:inline;overflow:visible;visibility:visible;fill:teal;fill-opacity:1;stroke:none;stroke-width:10;marker:none;enable-background:accumulate" transform="translate(-30.056 -133.281) scale(.12337)"/></g></g><g style="mix-blend-mode:normal"><path d="M39.356 55.26c5.141 0 9.31-4.128 9.31-9.219 0-5.09-4.169-9.218-9.31-9.218-5.143 0-9.31 4.127-9.31 9.218s4.167 9.218 9.31 9.218" style="fill:purple;stroke-width:.0352778;filter:url(#a)" transform="translate(-18.045 -24.823)"/></g></svg>